<svg xmlns="http://www.w3.org/2000/svg" viewBox="0 0 500 500"><g id="freepik--background-simple--inject-38"><path d="M464.5,130.56q-2.38-4-5-7.9C436.33,88.31,396.44,64.82,357.2,54.2a231.87,231.87,0,0,0-52.71-7.69c-116.62-3.95-163.07,88-201.61,111.67S5,222.42,9,307.41s65.22,165,183.81,170S319.31,429,385.52,409.2c43.82-13.08,75-57.26,90.2-98.09C496.5,255.47,495.52,183.2,464.5,130.56Z" style="fill:#90CAF9"></path><path d="M464.5,130.56q-2.38-4-5-7.9C436.33,88.31,396.44,64.82,357.2,54.2a231.87,231.87,0,0,0-52.71-7.69c-116.62-3.95-163.07,88-201.61,111.67S5,222.42,9,307.41s65.22,165,183.81,170S319.31,429,385.52,409.2c43.82-13.08,75-57.26,90.2-98.09C496.5,255.47,495.52,183.2,464.5,130.56Z" style="fill:#fff;opacity:0.7000000000000001"></path></g><g id="freepik--Wall--inject-38"><rect x="420" y="300.05" width="42" height="17" style="opacity:0.2"></rect><rect x="283.38" y="162.8" width="42" height="17" style="opacity:0.2"></rect><rect x="257.51" y="188.48" width="42" height="17" style="opacity:0.2"></rect><rect x="285.96" y="75.64" width="42" height="17" style="opacity:0.2"></rect><rect x="252" y="281.81" width="42" height="17" style="opacity:0.2"></rect><rect x="169.2" y="130.01" width="42" height="17" style="opacity:0.2"></rect><rect x="215.2" y="130.01" width="42" height="17" style="opacity:0.2"></rect><rect x="180" y="407.52" width="42" height="17" style="opacity:0.2"></rect><rect x="158" y="428.52" width="42" height="17" style="opacity:0.2"></rect><rect x="234.51" y="211.98" width="42" height="17" style="opacity:0.1"></rect><rect x="172.38" y="87.72" width="42" height="17" style="opacity:0.1"></rect><rect x="444" y="340.81" width="42" height="17" style="opacity:0.1"></rect><rect x="198" y="366.81" width="42" height="17" style="opacity:0.1"></rect><rect x="246" y="366.81" width="42" height="17" style="opacity:0.1"></rect><rect x="250" y="342.81" width="42" height="17" style="opacity:0.1"></rect><rect x="282.51" y="211.98" width="42" height="17" style="opacity:0.1"></rect><rect x="304" y="426.81" width="42" height="17" style="opacity:0.2"></rect><rect x="281" y="450.31" width="42" height="17" style="opacity:0.1"></rect><rect x="329" y="450.31" width="42" height="17" style="opacity:0.1"></rect><rect x="100.39" y="215.22" width="42" height="17" style="opacity:0.2"></rect><rect x="77.39" y="238.72" width="42" height="17" style="opacity:0.1"></rect><rect x="125.39" y="238.72" width="42" height="17" style="opacity:0.1"></rect><rect x="84" y="341.81" width="42" height="17" style="opacity:0.2"></rect><rect x="270" y="260.52" width="42" height="17" style="opacity:0.1"></rect><rect x="207" y="427.52" width="42" height="17" style="opacity:0.1"></rect><rect x="193.2" y="109.01" width="42" height="17" style="opacity:0.1"></rect><rect x="60" y="285.52" width="42" height="17" style="opacity:0.2"></rect><rect x="84" y="264.52" width="42" height="17" style="opacity:0.1"></rect><rect x="191" y="162.31" width="42" height="17" style="opacity:0.1"></rect><rect x="129.77" y="172.29" width="42" height="17" style="opacity:0.1"></rect><rect x="337" y="300.05" width="42" height="17" style="opacity:0.2"></rect><rect x="30.53" y="394.08" width="42" height="17" style="opacity:0.2"></rect><rect x="12.39" y="155.22" width="42" height="17" style="opacity:0.1"></rect><rect x="60.39" y="155.22" width="42" height="17" style="opacity:0.1"></rect><rect x="64.39" y="131.22" width="42" height="17" style="opacity:0.1"></rect><rect x="33" y="199.52" width="42" height="17" style="opacity:0.1"></rect><rect x="87.53" y="411.58" width="42" height="17" style="opacity:0.2"></rect></g><g id="freepik--Window--inject-38"><g style="opacity:0.30000000000000004"><path d="M327.3,25.5V265.33h151V25.5ZM472.77,83.11H406.22V34.23h66.55Zm-66.55,65.15h66.55v52.37H406.22Zm0-6.39V89.5h66.55v52.37ZM332.79,34.23h66.55V83.11H333.13V89.5h66.21v52.37H333.13v6.39h66.21v52.37H333.13V207h66.21V256.6H332.79ZM406.22,256.6V207h66.55V256.6Z" style="fill:none;stroke:#000;stroke-linecap:round;stroke-linejoin:round"></path><line x1="389.8" y1="48.84" x2="356.23" y2="76.63" style="fill:none;stroke:#000;stroke-linecap:round;stroke-linejoin:round"></line><line x1="456.37" y1="103.25" x2="422.79" y2="131.04" style="fill:none;stroke:#000;stroke-linecap:round;stroke-linejoin:round"></line><line x1="380.54" y1="220.76" x2="346.97" y2="248.54" style="fill:none;stroke:#000;stroke-linecap:round;stroke-linejoin:round"></line><line x1="372.19" y1="56.95" x2="356.81" y2="69.68" style="fill:none;stroke:#000;stroke-linecap:round;stroke-linejoin:round"></line><line x1="453.81" y1="96.89" x2="438.42" y2="109.62" style="fill:none;stroke:#000;stroke-linecap:round;stroke-linejoin:round"></line><line x1="378.56" y1="229.44" x2="363.17" y2="242.18" style="fill:none;stroke:#000;stroke-linecap:round;stroke-linejoin:round"></line><line x1="373.93" y1="168.08" x2="358.54" y2="180.82" style="fill:none;stroke:#000;stroke-linecap:round;stroke-linejoin:round"></line><line x1="452.65" y1="221.92" x2="437.26" y2="234.65" style="fill:none;stroke:#000;stroke-linecap:round;stroke-linejoin:round"></line><rect x="318.6" y="265.17" width="169.02" height="21" style="fill:none;stroke:#000;stroke-linecap:round;stroke-linejoin:round"></rect></g></g><g id="freepik--Plants--inject-38"><g style="opacity:0.30000000000000004"><polygon points="78.84 117.78 79.46 111.74 39.43 111.74 40.05 117.78 78.84 117.78" style="fill:none;stroke:#000;stroke-linecap:round;stroke-linejoin:round"></polygon><polygon points="77.2 133.67 41.69 133.67 37.25 90.7 81.63 90.7 77.2 133.67" style="fill:none;stroke:#000;stroke-linecap:round;stroke-linejoin:round"></polygon><path d="M44.5,90.39a23.93,23.93,0,0,1-10.87-5.24c-5.24-4.43-14.5-5.64-17.73-3.22a71.2,71.2,0,0,0-6.44,5.64s2.42-8.86,8.86-10.88,10.47,0,14.1,1.61,5.24,2.82,9.27,5.24A57.21,57.21,0,0,1,48.13,88s-1.21-5.23-3.63-7.65S27.59,67.43,27.59,67.43a92.89,92.89,0,0,1,13.29,4.43c5.24,2.42,9.26,6.85,9.67,8.86a37.14,37.14,0,0,0,2,5.64l1.61,4s-.4-6-.8-10.47-1.21-7.26-.81-11.69,1.21-7.25,1.21-9.66A12.52,12.52,0,0,1,55,53.73S56.59,65,57.4,68.64s.8,8.46,1.2,10.87,1.62,9.67,1.62,9.67-.81-6,1.61-9.26,3.22-5.64,4.83-8.06,3.63-6.45,3.63-6.45,0,6.45-1.62,10.48-2.82,6-2.82,7.65v5.64s4-7.25,6.45-9.26,4-2,4.83-3.23,5.64-4,5.64-4S80,79.11,79.15,80.32a53.53,53.53,0,0,1-4.84,4.83,67.93,67.93,0,0,1,8.87-3.62c4-1.21,10.07-2.42,12.48-2.42s10.48-1.21,10.48-1.21-7.25,3.22-11.68,4.84-7.26,2.41-8.87,2.82L84,86a65,65,0,0,1,11.28,2.82c5.64,2,7.25,3.62,8.06,4.83a11.12,11.12,0,0,1,1.21,3.22s2.41,2,2.41,3.63S96.07,92.81,92,91.6s-10.41-.9-10.41-.9" style="fill:none;stroke:#000;stroke-linecap:round;stroke-linejoin:round"></path></g><g style="opacity:0.30000000000000004"><polygon points="104.04 148.2 103.62 144.11 130.75 144.11 130.32 148.2 104.04 148.2" style="fill:none;stroke:#000;stroke-linecap:round;stroke-linejoin:round"></polygon><polygon points="105.16 158.97 129.21 158.97 132.22 129.85 102.15 129.85 105.16 158.97" style="fill:none;stroke:#000;stroke-linecap:round;stroke-linejoin:round"></polygon><path d="M127.31,129.64a16,16,0,0,0,7.36-3.55c3.55-3,9.83-3.82,12-2.18a47.66,47.66,0,0,1,4.37,3.82s-1.64-6-6-7.37-7.1,0-9.56,1.09a50.72,50.72,0,0,0-6.27,3.55,38.76,38.76,0,0,0-4.37,3s.82-3.54,2.46-5.18,11.46-8.74,11.46-8.74a63.37,63.37,0,0,0-9,3c-3.55,1.63-6.28,4.64-6.55,6a25,25,0,0,1-1.36,3.82l-1.1,2.73s.28-4.09.55-7.1.82-4.91.55-7.91-.82-4.91-.82-6.55a8.48,8.48,0,0,0-.82-3.28s-1.09,7.65-1.64,10.1-.54,5.73-.82,7.37-1.09,6.55-1.09,6.55.55-4.09-1.09-6.28-2.18-3.82-3.28-5.45-2.45-4.37-2.45-4.37a23.77,23.77,0,0,0,1.09,7.1c1.09,2.72,1.91,4.09,1.91,5.18v3.82s-2.73-4.91-4.37-6.28-2.73-1.36-3.27-2.18-3.82-2.73-3.82-2.73,1.91,4.37,2.45,5.19a36.29,36.29,0,0,0,3.28,3.27,46.27,46.27,0,0,0-6-2.45A41.07,41.07,0,0,0,92.64,122c-1.64,0-7.09-.82-7.09-.82s4.91,2.18,7.91,3.28,4.91,1.63,6,1.91l1.09.27a44.07,44.07,0,0,0-7.65,1.91c-3.82,1.36-4.91,2.46-5.45,3.27a7.3,7.3,0,0,0-.82,2.19S85,135.37,85,136.46s7.37-5.18,10.1-6a26.32,26.32,0,0,1,7.05-.61" style="fill:none;stroke:#000;stroke-linecap:round;stroke-linejoin:round"></path></g><g style="opacity:0.30000000000000004"><polygon points="156.27 79.31 156.75 74.61 125.64 74.61 126.12 79.31 156.27 79.31" style="fill:none;stroke:#000;stroke-linecap:round;stroke-linejoin:round"></polygon><polygon points="154.99 91.66 127.4 91.66 123.95 58.26 158.44 58.26 154.99 91.66" style="fill:none;stroke:#000;stroke-linecap:round;stroke-linejoin:round"></polygon><path d="M124,58.26s-3.84-3.77-6.07-4.73S111.49,51,111.49,51s5.11,0,8.62,1.6a67.85,67.85,0,0,1,7,3.83s-3.2-4.47-5.75-7.66-8.31-8.63-8.62-10.22,7.66,5.43,13.09,9.58,6.39,7,6.39,7-4.15-7.67-7.35-14.38a66.84,66.84,0,0,0-7-11.81c-1-1.28,9.26,10.54,12.77,16.29s5.75,9.26,5.75,9.26-3.83-19.17-4.47-23.64l-1.28-8.94s6.07,17.57,7,20.76,2.55,8.94,2.55,8.94,1.92-9.26,2.56-15,3.51-14,3.51-14S145,40.43,144.71,44.91l-.64,8.94s3.19-8.31,6.07-12.14a106.61,106.61,0,0,1,8-8.94S152.69,43,151.41,46.18s-2.87,9-2.87,9,6.39-9.9,9.26-13.1a34.32,34.32,0,0,1,8.31-6.39c2.55-1.59-8,11.18-9.27,14.06A49.23,49.23,0,0,1,154,55.13s1.92-2.56,7-4.48a86.65,86.65,0,0,1,15.33-3.83c1.28,0-8,3.83-11.18,5.11s-6.71,6.33-6.71,6.33" style="fill:none;stroke:#000;stroke-linecap:round;stroke-linejoin:round"></path></g></g><g id="freepik--character-4--inject-38"><ellipse cx="351.2" cy="169.93" rx="27.57" ry="36.34" transform="translate(102.18 470.28) rotate(-76.16)" style="fill:#90CAF9;stroke:#263238;stroke-linecap:round;stroke-linejoin:round"></ellipse><path d="M330.64,181.86s-7.21,2-10.49-2,1.64-15.41,7.05-20.66,20.66-7.54,28.53-6.72,17.21,6.72,18.53,13-1.32,12.3-1.48,14.26-4.76,2-5.41,1-10.49-15.41-12.46-16.07-3.28.66-5.41,1.8-18.36,8-18.36,8Z" style="fill:#263238;stroke:#263238;stroke-linecap:round;stroke-linejoin:round"></path><path d="M354.52,346.41l-3.24-21.05-7.44,25.58h0a57.1,57.1,0,0,0-4.91,10.14c-1.85,5.86,7.48,24.32,8.09,22.37s4.13-27,4.13-27a39.36,39.36,0,0,0,.36-7.68Z" style="fill:#fff;stroke:#263238;stroke-linecap:round;stroke-linejoin:round"></path><path d="M350.2,361.3s-6.74,2.3-6.74,16.61c0,3.9,5.56,44.89,5.56,51.75V458.1h37.24l4.59-27,3.45,26.43h37.35s3.73-41.65,4-46.82,2.87-16.38,2-31.89-4.31-21.55-4.31-21.55L351,355.82Z" style="fill:#263238;stroke:#263238;stroke-linecap:round;stroke-linejoin:round"></path><path d="M357.11,217.16s-17.55,15-21.35,19.05-2.31,27.66,2.73,43.79,10.4,41.08,10.65,46.12,1.06,35.18,1.06,35.18,31.32,12.36,50.48,9.33a101.69,101.69,0,0,0,32.77-11.09s-3-51.68-3-63-2.52-48.9-5-62-11.34-20.92-17.9-21.68S376.41,211,376.41,211Z" style="fill:#fff;stroke:#263238;stroke-linecap:round;stroke-linejoin:round"></path><path d="M348.25,213.62s7.92,22.22,9.24,22.44,4.84-3.3,4.84-3.3L376.41,211l-5.6-20.11s-3.2,10.64-9.36,17.46S348.25,213.62,348.25,213.62Z" style="fill:#fff;stroke:#263238;stroke-linecap:round;stroke-linejoin:round"></path><polygon points="363.55 209.27 353.16 225.35 348.25 213.62 363.55 209.27" style="fill:#263238;stroke:#263238;stroke-linecap:round;stroke-linejoin:round"></polygon><path d="M354.42,158.57s-9,7.22-16.23,9.84S327.36,172,327.36,172s2.3,14.59,3,18.69,2.13,11,5.08,13.94,10.16,10,13.44,11.8,8.86.33,10.5-.49,11.14-15.25,11.64-17.22-.17-7.87-.17-7.87,4.26-2.29,4.92-4.59-.82-10.82-2.13-12-3.44.17-3.77,1.48a21.34,21.34,0,0,1-1.31,3.28,14.13,14.13,0,0,0-1.48-5.58c-1.31-2.13-1.31-3-4.43-5.41S354.42,158.57,354.42,158.57Z" style="fill:#fff;stroke:#263238;stroke-linecap:round;stroke-linejoin:round"></path><path d="M343.43,190.87l.49,4.43s5.41-.16,7.87-2.79" style="fill:none;stroke:#263238;stroke-linecap:round;stroke-linejoin:round"></path><path d="M341,199.89s3.94,1.31,10-.49,7.55-6.07,7.55-6.07" style="fill:none;stroke:#263238;stroke-linecap:round;stroke-linejoin:round"></path><path d="M339.82,179.89s-7.05-2.3-9.18,2" style="fill:none;stroke:#263238;stroke-linecap:round;stroke-linejoin:round"></path><path d="M347,177.27s4.75-4.76,9.67-3" style="fill:none;stroke:#263238;stroke-linecap:round;stroke-linejoin:round"></path><path d="M339.09,186.19c.47,1.27.33,2.5-.31,2.73s-1.53-.61-2-1.89-.32-2.5.32-2.73S338.63,184.91,339.09,186.19Z" style="fill:#263238"></path><path d="M354.35,181.5c.47,1.28.33,2.5-.31,2.74s-1.53-.62-2-1.89-.33-2.5.31-2.73S353.88,180.23,354.35,181.5Z" style="fill:#263238"></path><path d="M391.6,240.56,406,292a8.5,8.5,0,0,0-.25,4,25.85,25.85,0,0,1,.75,2.77s-4,20.17-7.56,32.52-16.13,39.32-15.63,42.35-2.52,25.71-1,26.72,5.05,2.52,6.05,2.52,5.55.5,7.06.5,7.06-.25,8.07-2.27.76-3.27-.76-2.77a24.35,24.35,0,0,1-4,.76l-1-2s1.26-8.82,0-15.38-1.76-8.82-1.76-8.82,31.51-51.17,32.77-60.75,3.27-20.17,3.27-25-5-47.89-6.55-52.68-2.27-9.58-6.3-13.61-6.81-4-8.83-4" style="fill:#fff;stroke:#263238;stroke-linecap:round;stroke-linejoin:round"></path><path d="M408.5,297.41s7.4-3.08,13.72-.3" style="fill:none;stroke:#263238;stroke-linecap:round;stroke-linejoin:round"></path><path d="M413.28,291.86s8.48-2,13.88,4.32" style="fill:none;stroke:#263238;stroke-linecap:round;stroke-linejoin:round"></path><path d="M401.29,322.21c-.78,3.21-1.59,6.35-2.38,9.1-3.53,12.35-16.13,39.32-15.63,42.35s-2.52,25.71-1,26.72,5.05,2.52,6.05,2.52,5.55.5,7.06.5,7.06-.25,8.07-2.27.76-3.27-.76-2.77a24.35,24.35,0,0,1-4,.76l-1-2s1.26-8.82,0-15.38-1.76-8.82-1.76-8.82S411,348.31,420.74,330C414.46,323.5,406.54,322.21,401.29,322.21Z" style="fill:#fff;stroke:#263238;stroke-linecap:round;stroke-linejoin:round"></path><path d="M392.51,398.73s2.5,2.12,3.37,2.79,1.15,1.35,2.78,1.54" style="fill:#fff;stroke:#263238;stroke-linecap:round;stroke-linejoin:round"></path><path d="M387.61,400s3.75,2.79,6.05,3.37" style="fill:#fff;stroke:#263238;stroke-linecap:round;stroke-linejoin:round"></path><path d="M383.48,399.4a11.78,11.78,0,0,0,3.65,3.18" style="fill:#fff;stroke:#263238;stroke-linecap:round;stroke-linejoin:round"></path><path d="M350.1,355.09s.92,6.77,1.28,7.87-.18,3.11.19,7.31,1.46,8.6-1.28,7.87-4-7.87-3.85-9.7-3.11-7.31-3.11-7.31" style="fill:#fff;stroke:#263238;stroke-linecap:round;stroke-linejoin:round"></path></g><g id="freepik--character-2--inject-38"><path d="M296.82,318c-2.56-4.9-21.57-72.29-21.57-72.29-3.58,9.81-5.87,58.18-5.87,58.18l2.08,25.65-.37,4.81c5-3.41,17.14-10.13,25.23-1.18.12-.47.22-.87.27-1.18C297.64,325.5,299.38,322.87,296.82,318Z" style="fill:#90CAF9;stroke:#263238;stroke-linecap:round;stroke-linejoin:round"></path><path d="M290.69,324.46a15.77,15.77,0,0,1,3.72,1.09" style="fill:none;stroke:#263238;stroke-linecap:round;stroke-linejoin:round"></path><path d="M272.86,326.83A44.5,44.5,0,0,1,286,324.15" style="fill:none;stroke:#263238;stroke-linecap:round;stroke-linejoin:round"></path><path d="M293.16,321.76s-5.6-3.4-10.1-2.06" style="fill:none;stroke:#263238;stroke-linecap:round;stroke-linejoin:round"></path><polygon points="179.61 457.43 180.8 406.05 184.45 377.86 269.44 374.96 277.01 395.17 281.68 458.1 238.66 458.1 230.54 416.42 228.21 420.43 227.32 457.21 179.61 457.43" style="fill:#263238;stroke:#263238;stroke-linecap:round;stroke-linejoin:round"></polygon><path d="M206.38,236.1s-37,9.8-39.27,10.92,2.72,34.77,6.22,47,12,57.28,12,57.28l-.57,32.54s36.31.9,50.84-.89A290.33,290.33,0,0,0,266,377.19s5.15-28.76,3.38-47.7,3.39-66,3.46-69.1,2.37-14.71,2.37-14.71-27.66-8.47-34.77-9.36A190.37,190.37,0,0,0,206.38,236.1Z" style="fill:#90CAF9;stroke:#263238;stroke-linecap:round;stroke-linejoin:round"></path><path d="M199.41,244.4s4.61,12.71,15.5,20.3" style="fill:none;stroke:#263238;stroke-linecap:round;stroke-linejoin:round"></path><path d="M237.59,242.15a79.6,79.6,0,0,1-5.16,10.25" style="fill:none;stroke:#263238;stroke-linecap:round;stroke-linejoin:round"></path><line x1="231.75" y1="255.06" x2="229.84" y2="257.73" style="fill:none;stroke:#263238;stroke-linecap:round;stroke-linejoin:round"></line><path d="M218.42,380.25c8.6-.51,24.37-1.89,34.61-5.47" style="fill:none;stroke:#263238;stroke-linecap:round;stroke-linejoin:round"></path><path d="M212.3,380.52s1,0,2.67-.1" style="fill:none;stroke:#263238;stroke-linecap:round;stroke-linejoin:round"></path><path d="M247.72,371c-11.29,1.47-28.41,2.8-41.74-.08" style="fill:none;stroke:#263238;stroke-linecap:round;stroke-linejoin:round"></path><path d="M259.73,369s-2.85.59-7.43,1.28" style="fill:none;stroke:#263238;stroke-linecap:round;stroke-linejoin:round"></path><path d="M258.79,353.37c-6.83,4-19.88,10.68-32.81,12.8" style="fill:none;stroke:#263238;stroke-linecap:round;stroke-linejoin:round"></path><path d="M263.67,350.39s-.92.62-2.56,1.61" style="fill:none;stroke:#263238;stroke-linecap:round;stroke-linejoin:round"></path><path d="M201.15,223.29l1.55,17.89s5.47,13,18.2,12.13c12.47-.82,14.32-16.7,14.32-16.7l-2.52-18.89s-11,9.15-17.11,8.35S201.15,223.29,201.15,223.29Z" style="fill:#fff;stroke:#263238;stroke-linecap:round;stroke-linejoin:round"></path><path d="M188.47,202.1s-2.27-2.89-4-.28.32,9.63,3.45,11.15,3.95,1.51,3.95,1.51,3.55,7,5.42,9.08S212.84,235.4,216.13,236s8-.42,9.83-2.34,7.66-15.14,8.56-18.3,1.06-3.86,1.1-5.78-.05-3.58-.05-3.58,3.28-4.82,3.65-8.67-.52-6.74-2.57-7.29-4.36,3.57-4.36,3.57l-6.91-21.19S223,166.59,221,165.9s-16.81,1.11-23.07,3.72-12.37,5.37-12.86,8.26S188.47,202.1,188.47,202.1Z" style="fill:#fff;stroke:#263238;stroke-linecap:round;stroke-linejoin:round"></path><path d="M199.79,172.44s-11.82,2.35-12.51,4.27-1.63,5.56-.41,8.34,2.58,17.1,2.58,17.1,1.81,4.49.54,3.84-2.2-6-2.61-6.62-5.72-10.9-7.34-14.75,1.89-7.48,2.77-8.34a17.6,17.6,0,0,0,1.76-2.13s-.92-6.2,1.93-9,23.47-7,25.19-7.7,3.52-4.27,5-5.13,6,1.29,8.6,6.63,2.4,6.84,1.52,7.91L226,168s3,.43,4.17,4.49,2.8,7.9,2.72,11.11-.55,9.37-.57,10-.74,0-1.33-2.1-6-17.74-6.8-19.45a41.17,41.17,0,0,0-2.25-4.06C221.5,167.31,204,168,199.79,172.44Z" style="fill:#263238;stroke:#263238;stroke-linecap:round;stroke-linejoin:round"></path><path d="M216.13,236c3.29.55,8-.42,9.83-2.34s7.66-15.14,8.56-18.3,1.06-3.86,1.1-5.78-.05-3.58-.05-3.58l-2.9-13-.25.39c.33,4,.93,11.76.81,12.87a4.56,4.56,0,0,1-3.53,3.44c-1.66.28-9.47-1-12.92-.68s-4.57,1.51-7.22,2.89-8.1,4.67-9.48,5.09-4-.55-5.05-1.93-5.58-12.88-5.58-12.88a6.71,6.71,0,0,1-.76,2.15l3.19,10.18s3.55,7,5.42,9.08S212.84,235.4,216.13,236Z" style="fill:#263238;stroke:#263238;stroke-linecap:round;stroke-linejoin:round"></path><path d="M214.5,189.57s-2.26,2.62-1.87,3.44,5.53,16,5.35,17.62-2.4,2.47-4.17,1.92-2.9-5.5-2.9-5.5" style="fill:#fff;stroke:#263238;stroke-linecap:round;stroke-linejoin:round"></path><path d="M216.88,188.2s4.89-3.44,9.24-1.1" style="fill:none;stroke:#263238;stroke-linecap:round;stroke-linejoin:round;stroke-width:3px"></path><path d="M204,191.22s-7.52-1.65-10.83,4.13" style="fill:none;stroke:#263238;stroke-linecap:round;stroke-linejoin:round;stroke-width:3px"></path><path d="M203.24,198.25c.27,1.14-.08,2.22-.78,2.4s-1.49-.59-1.76-1.73.07-2.21.77-2.4S203,197.11,203.24,198.25Z" style="fill:#263238;stroke:#263238;stroke-linecap:round;stroke-linejoin:round"></path><path d="M221.32,193.51c.27,1.14-.08,2.21-.78,2.39s-1.49-.59-1.76-1.73.07-2.21.77-2.39S221.05,192.37,221.32,193.51Z" style="fill:#263238;stroke:#263238;stroke-linecap:round;stroke-linejoin:round"></path><path d="M208.56,219.16s9.58,1.79,15.24-4.54" style="fill:none;stroke:#858585;stroke-linecap:round;stroke-linejoin:round"></path><path d="M296.59,332c0,.14-.06.31-.1.48C296.53,332.27,296.56,332.1,296.59,332Z" style="fill:none;stroke:#263238;stroke-linecap:round;stroke-linejoin:round"></path><path d="M296.32,333.14c-8.09-8.95-20.27-2.23-25.23,1.18L268.51,358l-1.22,4.46s-9.16,9.8-10.32,11.81a17.83,17.83,0,0,1-4.35,4.68c-1.36,1.12-4.28,2-4.54,3.34s4.19,2,5.54,1.34,4.79-4.23,4.79-4.23l-2.15,5.79,17.42,7.58s1-5.13,1.54-8.25,1.37-10.47,1.63-11.81,17.73-32.13,19.62-40.19Z" style="fill:#fff;stroke:#263238;stroke-linecap:round;stroke-linejoin:round"></path><path d="M167.11,247s-4.56,4.23-5.55,8.47-16.12,57.24-19.66,65.27-4.14,14.49-2.21,17.61,36.79,27.9,36.79,27.9,3.71,12.48,4.74,15.6,2.92,8.47,2.92,8.47l14-6.47a43.59,43.59,0,0,0,4.35,4.24c1.75,1.34,4,2,4.44.67s-2.1-5.13-2.1-5.13a16.85,16.85,0,0,1-1.44-4.9c-.17-2.23-3.42-6.24-4.71-8.25s-12-9.36-12-9.36l-21.91-34.36,8.61-32.73S165.55,256.16,167.11,247Z" style="fill:#fff;stroke:#263238;stroke-linecap:round;stroke-linejoin:round"></path><path d="M164.72,326.78,174.64,299s-9.09-42.85-7.53-52c0,0-4.56,4.23-5.55,8.47s-16.12,57.24-19.66,65.27-4.14,14.49-2.21,17.61a27.7,27.7,0,0,0,9.51,8.07c2-3.88,7.3-12.9,18.74-13.69Z" style="fill:#90CAF9;stroke:#263238;stroke-linecap:round;stroke-linejoin:round"></path><path d="M148.26,325.22a28.92,28.92,0,0,1,12.89,1.56" style="fill:none;stroke:#263238;stroke-linecap:round;stroke-linejoin:round"></path><path d="M157.23,323.21s5.53,1.56,7.49,3.57" style="fill:none;stroke:#263238;stroke-linecap:round;stroke-linejoin:round"></path></g><g id="freepik--character-3--inject-38"><path d="M275.71,361.69S263.1,397,267.8,416s9,42.11,9,42.11h64.77s7.27-23.52,6.41-37.62-2.56-29.93-2.56-29.93L342,349.93H277.42Z" style="fill:#263238;stroke:#263238;stroke-linecap:round;stroke-linejoin:round"></path><path d="M306.28,396.53s10.69,22.66,15.39,40.41,4.49,20.94,4.49,20.94" style="fill:none;stroke:#858585;stroke-linecap:round;stroke-linejoin:round"></path><path d="M318.25,415.56S329.58,405.73,333,394" style="fill:none;stroke:#858585;stroke-linecap:round;stroke-linejoin:round"></path><path d="M313.33,254.81l-30.35,10A118.93,118.93,0,0,1,297.51,307c3.64,24.79,2.14,50,2.14,50s7.91,4.7,22.87,3S342,349.93,342,349.93s-1.07-41.47-6.63-57.93S313.33,254.81,313.33,254.81Z" style="fill:#90CAF9;stroke:#263238;stroke-linecap:round;stroke-linejoin:round"></path><path d="M268.17,181.15s-7.33-.57-10.41,7.71-11.75,37.19-10,43.55,5.59,8.48,7.13,15.42S252.94,259,252.94,259s2.7,3.86,9.25,4.05,16.38-5,22.93-6.55,21-2.89,30.06-4.24,11-8.09,11-8.09-6.17.57-6.55-3.28,4.62-18.31,2.5-28.33-16.57-20-22.93-25.05-12.33-9-19.08-9.25S269.32,178.65,268.17,181.15Z" style="fill:#263238;stroke:#263238;stroke-linecap:round;stroke-linejoin:round"></path><path d="M264.89,217.38s-5.78,10-5,18.88,7.52,9.45,8.86,8.29" style="fill:none;stroke:#858585;stroke-linecap:round;stroke-linejoin:round"></path><path d="M301.89,202.74s13.87,12.91,16,26.59" style="fill:none;stroke:#858585;stroke-linecap:round;stroke-linejoin:round"></path><path d="M281.2,239.49l6.49,17.78s13.59,15.82,19.48,13.59.21-18.07,0-20.3-2-13.2-2-13.2-4.06,6.5-6.7,6.5S281.2,239.49,281.2,239.49Z" style="fill:#fff;stroke:#263238;stroke-linecap:round;stroke-linejoin:round"></path><path d="M276.12,192.76s-10.6,19.38-10.6,22,8.15,19,10.4,22.23,17.74,10.4,21.21,10.6,6.93-3.67,7.74-6.73,4.28-11.43,4.05-16.08c-.09-1.74-6.37-21.3-8.21-22.32S276.12,192.76,276.12,192.76Z" style="fill:#fff;stroke:#263238;stroke-linecap:round;stroke-linejoin:round"></path><path d="M283.06,219.85s-3.89-1.61-6.17,1.87" style="fill:none;stroke:#263238;stroke-linecap:round;stroke-linejoin:round"></path><path d="M293.37,216.1s.81-4.16,5.63-2.95" style="fill:none;stroke:#263238;stroke-linecap:round;stroke-linejoin:round"></path><path d="M280.64,214.35s-6.16-.4-8,3.89" style="fill:none;stroke:#263238;stroke-linecap:round;stroke-linejoin:round"></path><path d="M289,210.47s3.35-4.56,8-2.95" style="fill:none;stroke:#263238;stroke-linecap:round;stroke-linejoin:round"></path><path d="M294.58,224.94s-2,2.95-5,2.14" style="fill:none;stroke:#263238;stroke-linecap:round;stroke-linejoin:round"></path><path d="M300.34,226.82s-3.88,5.76-14.6,6.56c0,0,7.1,5.09,11.25,3.75S300.34,226.82,300.34,226.82Z" style="fill:#fff;stroke:#263238;stroke-linecap:round;stroke-linejoin:round"></path><path d="M269.39,225.07s-3.49-1.6-4,2.68,8.44,5.77,8.44,5.77Z" style="fill:#fff;stroke:#263238;stroke-linecap:round;stroke-linejoin:round"></path><path d="M304.07,209.62a1.31,1.31,0,0,1,1.74-1.31c1.71.44,4.58,5.57,4.27,8.64s-2.32,3.13-2.32,3.13Z" style="fill:#fff;stroke:#263238;stroke-linecap:round;stroke-linejoin:round"></path><path d="M276.92,257.05s-23.75,15.84-24.77,18.68,16.24,87.1,16.24,87.1-22.94,51.57-17.25,60.5,31.47,17.46,32.68,19.08,11.58-42.83,16-59.68S311.64,335.42,312,321s-5.48-33.5-7.51-39.8S298.85,264,298.85,264Z" style="fill:#a3a3a3;stroke:#263238;stroke-linecap:round;stroke-linejoin:round"></path><path d="M283,247s16.71,16.13,15.9,16.94-10.36,15-10.36,15l-14.61-21.32Z" style="fill:#a3a3a3;stroke:#263238;stroke-linecap:round;stroke-linejoin:round"></path><path d="M310,263.15S324.63,281,330.72,293.8s8.94,35.53,8.94,44.46v16.85S346,397.75,348,404.86s5.28,20.3,5.28,20.3,2.43-.81,2.23-9.75-3.45-45.27-6.29-59.69-4-38.31-5.85-42.57l-1.83-4.27,21.69-6.3s-13.53-12.24-17.92-31c-2-8.54-6.45-13.1-9.09-14.93S314.28,252.79,311,253,310,263.15,310,263.15Z" style="fill:#a3a3a3;stroke:#263238;stroke-linecap:round;stroke-linejoin:round"></path><path d="M310,263.15s.61-2.64,1.83-2.24,11.57,6.3,12.59,5.69S313.87,252,311.64,250a25.79,25.79,0,0,0-4.47-3.25v3.86Z" style="fill:#a3a3a3;stroke:#263238;stroke-linecap:round;stroke-linejoin:round"></path><path d="M329.71,263.35s7.1,22.94,7.92,32.89" style="fill:#fff;stroke:#263238;stroke-linecap:round;stroke-linejoin:round"></path><path d="M333.76,309.26s4.13-16.53,5.12-17.53,9.1-4.46,9.76-4.62,5.95,3.63,6.77,4.46,4.47,3.14,3.81,4.46-2.81.33-4,.33-6.61,3.47-6.94,4-2.15,4.63-2.81,5.79S333.76,309.26,333.76,309.26Z" style="fill:#fff;stroke:#263238;stroke-linecap:round;stroke-linejoin:round"></path><path d="M356.92,292.91s-2.17-.87-2.82-.55-8.38,3.92-8.81,4.46-1,1.42-1,1.42" style="fill:none;stroke:#263238;stroke-linecap:round;stroke-linejoin:round"></path><path d="M342.24,295.74a11.36,11.36,0,0,1,2.61-2.5c1.31-.77,5.88-2.51,6.42-2.72a10.12,10.12,0,0,1,2.61,0" style="fill:none;stroke:#263238;stroke-linecap:round;stroke-linejoin:round"></path><path d="M350.51,288.56s-8.7,3.15-9.25,3.91l-.54.77" style="fill:none;stroke:#263238;stroke-linecap:round;stroke-linejoin:round"></path><path d="M342.09,306.59s8.33-5.89,12-7.51,11.17,1.42,12.59,3.25,3.25,10.56,3,17.05-.4,9.34-4.87,10.76a110.17,110.17,0,0,1-11.17,2.44c-.6.2-1.21-12.18-5.07-18.88S342.09,306.59,342.09,306.59Z" style="fill:#a3a3a3;stroke:#263238;stroke-linecap:round;stroke-linejoin:round"></path><path d="M331.53,310.65s2,23.15,3.66,26,5.68,2.23,9.95,1.22,10.55-2.44,10.76-3.86,0-15-2.24-20.71-6.09-9.74-9.13-8.93S331.53,307.2,331.53,310.65Z" style="fill:#a3a3a3;stroke:#263238;stroke-linecap:round;stroke-linejoin:round"></path><path d="M312.76,348.77l24.8-21.33-10.41-6.94-19.84,8.76S312.6,343.31,312.76,348.77Z" style="fill:#fff;stroke:#263238;stroke-linecap:round;stroke-linejoin:round"></path><path d="M300.7,360.51s2.64,0,6.28-3,6.94-5,5.95-13.39-5.13-21.33-7.11-23-14.71.33-15,1.16,10.08,15.87,10.91,24.63S300.7,360.51,300.7,360.51Z" style="fill:#a3a3a3;stroke:#263238;stroke-linecap:round;stroke-linejoin:round"></path><path d="M257.05,276.19s-1.86-3.56-4.9-.46-4.69,11.87-2.54,22.45,8.1,54.89,10.42,60.34,4.46,10.58,8.59,10.75,17.69-1.66,26.95-5.29,8.76-14.55,5.62-24-8.93-17.2-12.4-19.51-5.29-5.29-8.92-12.07S268,284.46,265.65,282" style="fill:#a3a3a3;stroke:#263238;stroke-linecap:round;stroke-linejoin:round"></path><path d="M273.2,337.94a20.78,20.78,0,0,1-2.57,2" style="fill:none;stroke:#263238;stroke-linecap:round;stroke-linejoin:round"></path><path d="M283.39,323.68a61.2,61.2,0,0,1-8.05,12.09" style="fill:none;stroke:#263238;stroke-linecap:round;stroke-linejoin:round"></path><path d="M336.07,313.23s-24.3,2.31-30.58,2.14-15.21-3.47-15.21-3.47-10.74-4.46-13.06-5.62-7.77-1.16-9.26-.49-4.79,3.3-4.29,5,2.47.49,3.47-.34a12,12,0,0,1,2.64-1.48l5.29,1.15,1,1.33s-7.27,1.32-8.26,1.82-3.8,6.77-4.3,8.1,0,1.15,1,1.15h1s-.49,2.65.5,3a3.64,3.64,0,0,0,2.31-.33s1.16,1.16,1.66,1.16a61.21,61.21,0,0,0,6.44-3.31c.83-.5,7.94,1,9.76,1s8.76-.16,8.76-.16,33.39,9.58,37.86,10.25,7.44.49,9.09-4.47S339.88,313.89,336.07,313.23Z" style="fill:#fff;stroke:#263238;stroke-linecap:round;stroke-linejoin:round"></path><path d="M268.29,325.13s4.47-5,5.62-5.62a29.65,29.65,0,0,1,3.48-1.49" style="fill:none;stroke:#263238;stroke-linecap:round;stroke-linejoin:round"></path><polyline points="265.48 322.48 270.11 317.03 275.07 315.04" style="fill:none;stroke:#263238;stroke-linecap:round;stroke-linejoin:round"></polyline></g><g id="freepik--character-1--inject-38"><path d="M147.15,180.06a24.47,24.47,0,0,0,3.53,1.63c2.17.81,7.6,2.71,10,5.43s1.63,9.23,1.63,9.23" style="fill:none;stroke:#263238;stroke-linecap:round;stroke-linejoin:round"></path><line x1="116.15" y1="202.64" x2="114.03" y2="207.21" style="fill:none;stroke:#263238;stroke-linecap:round;stroke-linejoin:round"></line><path d="M99,188.31s-1.48,7-3,8.6-3.87,3.5-3.08,7,5.4,5.69,5.38,6.27S90,212.35,90.2,215s2.48,5.83,2.48,5.83-6.17,2-6.69,5.53,1.58,7,1.55,8.31-3.75,4.22-2.64,6.56,3.74,2,3.88,2.47-1.52,2.33-1.55,3.5a3.82,3.82,0,0,0,.82,2.18H137.3l-14-72.85-18.54,7.14Z" style="fill:#90CAF9;stroke:#263238;stroke-linecap:round;stroke-linejoin:round"></path><path d="M165.73,353.65s10.15,23.11,11.49,28.79,2,30.93-.15,40.77c-3.85,17.91-14.89,34.89-14.89,34.89H106.24L94.7,404.23l16.85-52.48Z" style="fill:#fff;stroke:#263238;stroke-linecap:round;stroke-linejoin:round"></path><polyline points="156.45 398.2 151.74 410.39 153.98 457.84" style="fill:none;stroke:#263238;stroke-linecap:round;stroke-linejoin:round"></polyline><path d="M164.84,338.3s9.88,8.41,11.07,11.56,1.94,24,2.48,27.53-1.85,6.94-1.85,6.94L168,363.1s-.82-9.45-1-10.08-1.75-5.68-1.75-5.68Z" style="fill:#fff;stroke:#263238;stroke-linecap:round;stroke-linejoin:round"></path><path d="M173,357.64s.12,3.78.48,6.51,1.49,7.78-.85,9" style="fill:#fff;stroke:#263238;stroke-linecap:round;stroke-linejoin:round"></path><path d="M129,248.77l13.44.42,9.61.32,11.17,9.35s9.38,46.66,10.15,49.6-8,25-8.65,27.11,1,18.08,1,18.08-4.3,4-18.22,5.88-30-4-30-4,10.55-27.74,12.81-42.67c0,0,2-28.79,1.31-37S129,248.77,129,248.77Z" style="fill:#90CAF9;stroke:#263238;stroke-linecap:round;stroke-linejoin:round"></path><line x1="162.5" y1="317.83" x2="140.74" y2="328.87" style="fill:none;stroke:#263238;stroke-linecap:round;stroke-linejoin:round"></line><line x1="161.23" y1="321.62" x2="151.14" y2="326.66" style="fill:none;stroke:#263238;stroke-linecap:round;stroke-linejoin:round"></line><path d="M125.29,233.32s8.08,28,9.13,32.95,11.39,10.78,17.74,7.57,4.3-9.32,3.23-13.11S152,249.51,152,249.51l2.44-22.73S146.78,237,144,238.15,125.29,233.32,125.29,233.32Z" style="fill:#fff;stroke:#263238;stroke-linecap:round;stroke-linejoin:round"></path><polygon points="140.41 240.69 151 250.91 153.61 228.98 140.41 240.69" style="fill:#263238;stroke:#263238;stroke-linecap:round;stroke-linejoin:round"></polygon><line x1="151.38" y1="249.79" x2="150.82" y2="259.83" style="fill:none;stroke:#263238;stroke-linecap:round;stroke-linejoin:round"></line><path d="M152.09,247.2s15,42.77,16.63,52.43,2,11.77,2.15,15.14-2.57,10.71-2.57,10.71,10.61-13,10.68-24.37-7.64-45.63-11.24-47.71C153.44,245.14,152.09,247.2,152.09,247.2Z" style="fill:#263238;stroke:#263238;stroke-linecap:round;stroke-linejoin:round"></path><path d="M166,268.31s6.57,19.17,5.51,33.56" style="fill:none;stroke:#a3a3a3;stroke-linecap:round;stroke-linejoin:round"></path><path d="M115.19,199.82l6.79-9.61,31.43,31.91s-1.91,18.65-1.92,19.23,1.95,3.79,1.95,3.79a10.44,10.44,0,0,1,1.56,1.75c.7,1,0,1-.21,2.47s.82,2.19,1.53,2.92a19,19,0,0,0,3.45,2c1,.58.1,1.89-.66,3.2a6.83,6.83,0,0,0-.59,6.42c1.24,2.62,2,2.18,4.12,4.22s-1,3.94-1,3.94,1.61-.44,2.93-.88a2.14,2.14,0,0,0,1.39-2.91c-.56-1-1.65-4.37-1.19-5s4.58-2.62,5.78-4.22-.1-1.9.94-2.48,3.1-1.89,3.59-3.93-1.93-4.52-1.19-5.25,3.55-5.21,3.58-6.53-1.63-3.53-1.63-3.53,1.09-.87,1.77-5.09-2.63-5.54-2.87-7.87,3.2-5.54,3.25-13.7-13.44-10.64-13.85-11.65.06-2.63-.18-4.81-5.53-6-5.53-6,.63-2.18,1.1-3.64-.22-2.77-2.79-5.1-15-13.26-20.19-14.43-14,4.52-15,5.1-9.29-1.45-11.81.59-3.34,5.53-4,7-2.81,1.46-4.15,2.92-3.55,14.13-3.55,14.13" style="fill:#90CAF9;stroke:#263238;stroke-linecap:round;stroke-linejoin:round"></path><path d="M128.13,244.05s15.21,53.48,15.88,60.42-23.13,52.33-28,61.79-15.43,38.25-17.14,48.12-3,21.65-3,21.65-12.67-6.09-21-11.35-9.68-8.19-9-9.25S70,401.35,70,401.35s-7.16-8-6.72-8.82S80,335.78,80,335.78s4.29-89.95,6-89.95S128.13,244.05,128.13,244.05Z" style="fill:#263238;stroke:#263238;stroke-linecap:round;stroke-linejoin:round"></path><line x1="126.59" y1="269.59" x2="144.01" y2="304.47" style="fill:none;stroke:#a3a3a3;stroke-linecap:round;stroke-linejoin:round"></line><path d="M96,246.46s-12.55-2.52-14.73.84-21.43,60.32-22.61,65.57S93.56,357,93.56,357l18.58-12.4-22-30.9,12-44.13" style="fill:#263238;stroke:#263238;stroke-linecap:round;stroke-linejoin:round"></path><polyline points="99.04 283.3 90.08 310.99 110.13 341.04" style="fill:none;stroke:#a3a3a3;stroke-linecap:round;stroke-linejoin:round"></polyline><line x1="101.49" y1="274.61" x2="100.2" y2="278.7" style="fill:none;stroke:#a3a3a3;stroke-linecap:round;stroke-linejoin:round"></line><polygon points="110.13 341.04 89.96 357.85 96.7 366.05 117.91 349.65 110.13 341.04" style="fill:#fff;stroke:#263238;stroke-linecap:round;stroke-linejoin:round"></polygon><path d="M116.41,350.49s16.79,18.5,18.66,19.34,5.56,4.83,6.56,6.72,2.42,4.42,3.86,5.47,1.63,2.31-.91,2.94-4.85.84-6.25-2.1a32.26,32.26,0,0,0-3.65-5.68L120.34,387.9s-3.09-11.35-3.45-13.66-1.12-6.09-1.12-6.09l-9.65-9.25Z" style="fill:#fff;stroke:#263238;stroke-linecap:round;stroke-linejoin:round"></path><path d="M92.9,231.15s-1.4,9.32-.6,12.53c.84,3.4,7.67,2.79,6.27,7.3-.45,1.45-2.21,3-1.66,4.65s2.79,1.78,4,2.74c2.27,1.76,1.46,3.66,2.23,6.15.56,1.8,2.48,2.43,3,3.86.61,1.69-.57,2.75,1.31,4.59,3.28,3.21,5.74,3.79,6.18,3.5s-.41-1,1.66-2,6-2.92,5.35-4.52l-1.37-3.19c1,2.21,3.94,0,4.76-1.19,1.86-2.66-1-5.52-.66-8.4.37-3.18,4-4.82,4.36-8s-2.87-5.3-2.16-8.19c.32-1.31.5-2.76.5-2.76s-1-2.92-2.38-3.94-1.91-5.1-2-6.56" style="fill:#90CAF9;stroke:#263238;stroke-linecap:round;stroke-linejoin:round"></path><path d="M119.11,185s-11.78,17.13-10.88,20.75,9.89,26.85,13,29.15,15.46,7.74,19.57,7.91,7.12-1.48,8.84-4.28,8.24-14.17,8.3-16.64-5.21-26.18-6.19-26.51S119.11,185,119.11,185Z" style="fill:#fff;stroke:#000;stroke-linecap:round;stroke-linejoin:round"></path><path d="M137.11,203.15s-.34,4.57.08,6.06,4.29,6.85,4.38,7.77-1.41,1.83-3.49,2.63" style="fill:none;stroke:#263238;stroke-linecap:round;stroke-linejoin:round"></path><path d="M110.53,212.78s-2.58-2.3-4,.5-.32,6.59,4,9.72,5.36,3.12,5.36,3.12Z" style="fill:#fff;stroke:#263238;stroke-linecap:round;stroke-linejoin:round"></path><path d="M153.63,201.26s2.33-1.16,3.41,1.81-.58,10.54-.58,10.54Z" style="fill:#fff;stroke:#263238;stroke-linecap:round;stroke-linejoin:round"></path><path d="M131.29,225.59s7.61-.57,9.47-1.49,5.12-4.68,5.12-4.68,0,8.25-4,9.66C139,230.07,131.29,225.59,131.29,225.59Z" style="fill:#fff;stroke:#263238;stroke-linecap:round;stroke-linejoin:round"></path><path d="M118.83,207.61s.56-4.35,8.12-5.15" style="fill:#fff;stroke:#263238;stroke-linecap:round;stroke-linejoin:round"></path><path d="M137,199.41s4.64-4,9.66.88" style="fill:#fff;stroke:#263238;stroke-linecap:round;stroke-linejoin:round"></path><path d="M128.21,209.81c.4,1.34,0,2.67-1,3s-2-.56-2.4-1.9,0-2.66,1-3S127.81,208.47,128.21,209.81Z" style="fill:#263238"></path><path d="M143.76,205.51c.4,1.34,0,2.66-1,3s-2-.55-2.4-1.89,0-2.67,1-3S143.36,204.17,143.76,205.51Z" style="fill:#263238"></path></g><g id="freepik--Table--inject-38"><line x1="464.79" y1="458.1" x2="17.03" y2="458.1" style="fill:none;stroke:#263238;stroke-linecap:round;stroke-linejoin:round"></line><line x1="488.57" y1="458.1" x2="471.92" y2="458.1" style="fill:none;stroke:#263238;stroke-linecap:round;stroke-linejoin:round"></line></g></svg>
